<?xml version="1.0" encoding="UTF-8"?>
<svg version="1.1" xmlns="http://www.w3.org/2000/svg" width="219" height="75">
<path d="M0 0 C0.66 0 1.32 0 2 0 C1.3834382 5.39314398 0.11959851 10.28577073 -1.5625 15.4375 C-2.366875 17.933125 -3.17125 20.42875 -4 23 C1.28 23.33 6.56 23.66 12 24 C10.09476825 27.8104635 8.32340956 29.99593882 5.4375 33.0625 C1.96608181 36.79595956 -1.3591628 40.59216657 -4.5625 44.5625 C-13.55750578 55.67021177 -13.55750578 55.67021177 -18 60 C-18.66 60 -19.32 60 -20 60 C-19.39496146 54.3444819 -18.37814297 48.99786009 -16.9375 43.5 C-16.75123047 42.77296875 -16.56496094 42.0459375 -16.37304688 41.296875 C-15.91973545 39.53012276 -15.4604998 37.76489225 -15 36 C-21.93 35.505 -21.93 35.505 -29 35 C-27.85016746 30.40066983 -26.41460321 28.96503944 -23.1875 25.5625 C-22.1887766 24.49872184 -21.19007965 23.43491885 -20.19140625 22.37109375 C-19.66949707 21.82050293 -19.14758789 21.26991211 -18.60986328 20.70263672 C-15.92594793 17.8640523 -13.27657151 14.99375656 -10.625 12.125 C-10.13797607 11.60236572 -9.65095215 11.07973145 -9.14916992 10.54125977 C-6.75941744 7.96531411 -4.47029005 5.36044084 -2.2734375 2.6171875 C-1.52320312 1.75351563 -0.77296875 0.88984375 0 0 Z " fill="#FBFCFB" transform="translate(51,9)"/>
<path d="M0 0 C8.25 0 16.5 0 25 0 C25 2.64 25 5.28 25 8 C20.38 8 15.76 8 11 8 C11 9.32 11 10.64 11 12 C14.96 12 18.92 12 23 12 C23 14.64 23 17.28 23 20 C19.04 20 15.08 20 11 20 C11 23.3 11 26.6 11 30 C7.37 30 3.74 30 0 30 C0 20.1 0 10.2 0 0 Z " fill="#FCFCFC" transform="translate(76,23)"/>
<path d="M0 0 C2.97 0 5.94 0 9 0 C9.33 2.64 9.66 5.28 10 8 C10.67546875 7.95359375 11.3509375 7.9071875 12.046875 7.859375 C12.93890625 7.82328125 13.8309375 7.7871875 14.75 7.75 C15.63171875 7.70359375 16.5134375 7.6571875 17.421875 7.609375 C20 8 20 8 22.3125 9.40625 C24.89945402 13.38249414 24.42783483 17.11945457 24.25 21.75 C24.23195312 22.63816406 24.21390625 23.52632812 24.1953125 24.44140625 C24.14828752 26.62806775 24.07654648 28.81417281 24 31 C21.03 31 18.06 31 15 31 C14.67 26.05 14.34 21.1 14 16 C12.68 15.67 11.36 15.34 10 15 C10.09539062 15.90363281 10.19078125 16.80726562 10.2890625 17.73828125 C10.39992187 18.91777344 10.51078125 20.09726562 10.625 21.3125 C10.74101562 22.48425781 10.85703125 23.65601563 10.9765625 24.86328125 C11 28 11 28 9 31 C6.03 31 3.06 31 0 31 C0 20.77 0 10.54 0 0 Z " fill="#FCFCFC" transform="translate(173,22)"/>
<path d="M0 0 C1.20527344 -0.01933594 2.41054687 -0.03867187 3.65234375 -0.05859375 C7.72267485 0.53353918 9.36844861 1.33326409 12.0625 4.4375 C12.55078125 7.671875 12.55078125 7.671875 12.375 11.1875 C12.30732422 12.94320312 12.30732422 12.94320312 12.23828125 14.734375 C12.18027344 15.62640625 12.12226563 16.5184375 12.0625 17.4375 C13.0525 17.4375 14.0425 17.4375 15.0625 17.4375 C15.10504356 19.43704746 15.10330783 21.43791636 15.0625 23.4375 C14.0625 24.4375 14.0625 24.4375 10.8125 24.5625 C7.0625 24.4375 7.0625 24.4375 4.3125 23.875 C1.90756244 23.21609647 1.90756244 23.21609647 -0.9375 24.4375 C-5.35288659 24.92809851 -7.26228359 24.91577829 -10.9375 22.3125 C-12.9375 19.4375 -12.9375 19.4375 -12.9375 16.3125 C-11.94293826 13.45313499 -11.34888526 12.19966615 -8.9375 10.4375 C-6.05538698 9.47679566 -4.23899956 9.33168117 -1.25 9.375 C-0.03763672 9.38853516 -0.03763672 9.38853516 1.19921875 9.40234375 C2.12154297 9.41974609 2.12154297 9.41974609 3.0625 9.4375 C2.7325 8.7775 2.4025 8.1175 2.0625 7.4375 C1.423125 7.6025 0.78375 7.7675 0.125 7.9375 C-3.91336652 8.59682515 -7.85557258 8.51753779 -11.9375 8.4375 C-11.62579339 5.55421385 -11.39014728 3.89781927 -9.32421875 1.796875 C-6.11204921 -0.03264219 -3.68008922 0.00392752 0 0 Z M-1.9375 14.4375 C-1.9375 15.7575 -1.9375 17.0775 -1.9375 18.4375 C0.04741642 18.17073796 0.04741642 18.17073796 2.0625 17.4375 C2.3925 16.4475 2.7225 15.4575 3.0625 14.4375 C1.4125 14.4375 -0.2375 14.4375 -1.9375 14.4375 Z " fill="#FBFBFB" transform="translate(129.9375,29.5625)"/>
<path d="M0 0 C0.33 1.98 0.66 3.96 1 6 C0.01 6.33 -0.98 6.66 -2 7 C-1.34 7.53625 -0.68 8.0725 0 8.625 C2 11 2 11 2.5 14 C1.89149624 17.65102254 0.89619126 18.76579531 -2 21 C-7.30299665 22.76766555 -12.247256 22.7010976 -17.4375 20.625 C-20 19 -20 19 -22 17 C-22 15.68 -22 14.36 -22 13 C-20.68 12.67 -19.36 12.34 -18 12 C-18.495 11.649375 -18.99 11.29875 -19.5 10.9375 C-21.79395236 7.97447821 -21.38888282 5.62957303 -21 2 C-18.3918759 -1.36480208 -15.53079061 -2.03786037 -11.49609375 -2.859375 C-7.30603911 -3.09543442 -3.78919067 -1.66616895 0 0 Z M-12 4 C-11.34 4.66 -10.68 5.32 -10 6 C-9.01 6 -8.02 6 -7 6 C-7 5.34 -7 4.68 -7 4 C-8.65 4 -10.3 4 -12 4 Z M-13 13 C-12.67 13.99 -12.34 14.98 -12 16 C-10.35 15.67 -8.7 15.34 -7 15 C-9.81509993 12.7226499 -9.81509993 12.7226499 -13 13 Z " fill="#FAFAFA" transform="translate(168,32)"/>
<path d="M0 0 C2.97 0 5.94 0 9 0 C9.19780055 4.04123121 9.38141429 8.08298804 9.5625 12.125 C9.61857422 13.26710938 9.67464844 14.40921875 9.73242188 15.5859375 C9.78076172 16.69453125 9.82910156 17.803125 9.87890625 18.9453125 C9.9260376 19.96125488 9.97316895 20.97719727 10.02172852 22.02392578 C9.99913862 25.11798001 9.5873296 27.9664525 9 31 C6.03 31 3.06 31 0 31 C0 20.77 0 10.54 0 0 Z " fill="#FBFBFB" transform="translate(105,22)"/>
<path d="" fill="#000000" transform="translate(0,0)"/>
<path d="" fill="#000000" transform="translate(0,0)"/>
<path d="" fill="#000000" transform="translate(0,0)"/>
<path d="" fill="#000000" transform="translate(0,0)"/>
<path d="" fill="#000000" transform="translate(0,0)"/>
<path d="" fill="#000000" transform="translate(0,0)"/>
<path d="" fill="#000000" transform="translate(0,0)"/>
<path d="" fill="#000000" transform="translate(0,0)"/>
<path d="" fill="#000000" transform="translate(0,0)"/>
<path d="" fill="#000000" transform="translate(0,0)"/>
<path d="" fill="#000000" transform="translate(0,0)"/>
<path d="" fill="#000000" transform="translate(0,0)"/>
<path d="" fill="#000000" transform="translate(0,0)"/>
<path d="" fill="#000000" transform="translate(0,0)"/>
<path d="" fill="#000000" transform="translate(0,0)"/>
<path d="" fill="#000000" transform="translate(0,0)"/>
<path d="" fill="#000000" transform="translate(0,0)"/>
<path d="" fill="#000000" transform="translate(0,0)"/>
<path d="" fill="#000000" transform="translate(0,0)"/>
<path d="" fill="#000000" transform="translate(0,0)"/>
<path d="" fill="#000000" transform="translate(0,0)"/>
<path d="" fill="#000000" transform="translate(0,0)"/>
<path d="" fill="#000000" transform="translate(0,0)"/>
<path d="" fill="#000000" transform="translate(0,0)"/>
<path d="" fill="#000000" transform="translate(0,0)"/>
<path d="" fill="#000000" transform="translate(0,0)"/>
<path d="" fill="#000000" transform="translate(0,0)"/>
<path d="" fill="#000000" transform="translate(0,0)"/>
<path d="" fill="#000000" transform="translate(0,0)"/>
<path d="" fill="#000000" transform="translate(0,0)"/>
<path d="" fill="#000000" transform="translate(0,0)"/>
<path d="" fill="#FF0000" transform="translate(0,0)"/>
<path d="" fill="#000000" transform="translate(0,0)"/>
<path d="" fill="#000000" transform="translate(0,0)"/>
<path d="" fill="#000000" transform="translate(0,0)"/>
<path d="" fill="#000000" transform="translate(0,0)"/>
<path d="" fill="#000000" transform="translate(0,0)"/>
<path d="" fill="#000000" transform="translate(0,0)"/>
<path d="" fill="#000000" transform="translate(0,0)"/>
<path d="" fill="#000000" transform="translate(0,0)"/>
<path d="" fill="#000000" transform="translate(0,0)"/>
<path d="" fill="#000000" transform="translate(0,0)"/>
<path d="" fill="#000000" transform="translate(0,0)"/>
<path d="" fill="#000000" transform="translate(0,0)"/>
<path d="" fill="#000000" transform="translate(0,0)"/>
<path d="" fill="#000000" transform="translate(0,0)"/>
<path d="" fill="#000000" transform="translate(0,0)"/>
<path d="" fill="#000000" transform="translate(0,0)"/>
<path d="" fill="#000000" transform="translate(0,0)"/>
<path d="" fill="#000000" transform="translate(0,0)"/>
<path d="" fill="#000000" transform="translate(0,0)"/>
<path d="" fill="#000000" transform="translate(0,0)"/>
<path d="" fill="#000000" transform="translate(0,0)"/>
<path d="" fill="#000000" transform="translate(0,0)"/>
<path d="" fill="#000000" transform="translate(0,0)"/>
<path d="" fill="#000000" transform="translate(0,0)"/>
</svg>
